<?xml version="1.0" encoding="iso-8859-1"?>
<!-- Generator: Adobe Illustrator 19.0.0, SVG Export Plug-In . SVG Version: 6.00 Build 0)  -->
<svg version="1.1" id="Layer_1" xmlns="http://www.w3.org/2000/svg" xmlns:xlink="http://www.w3.org/1999/xlink" x="0px" y="0px"
	 viewBox="0 0 511.997 511.997" style="enable-background:new 0 0 511.997 511.997;" xml:space="preserve">
<polyline style="fill:#FA9C1C;" points="258.887,109.015 161.284,457.057 16.111,425.407 74.495,57.953 "/>
<path style="fill:#FFFFFF;" d="M210.234,33.234c-7.858-1.713-15.678-1.829-23.179-0.679c-8.834-11.425-21.563-19.937-36.777-23.255
	c-34.362-7.492-68.291,14.291-75.781,48.653c-5.903,27.078,6.417,53.828,28.702,67.643l-6.44,29.541
	c-4.37,20.044,8.336,39.836,28.381,44.205c20.044,4.37,39.836-8.336,44.205-28.381l3.594-16.487
	c3.255,1.305,6.625,2.422,10.166,3.193c34.362,7.492,68.29-14.291,75.781-48.653C266.377,74.653,244.595,40.724,210.234,33.234z"/>
<rect x="76.749" y="389.674" transform="matrix(-0.9771 -0.213 0.213 -0.9771 88.056 804.4993)" style="fill:#1D1D1B;" width="21.227" height="15.665"/>
<polyline style="fill:#FBB049;" points="253.111,154.731 350.713,502.773 495.887,471.123 437.501,103.669 "/>
<path style="fill:#FFFFFF;" d="M301.764,78.949c7.858-1.713,15.678-1.829,23.179-0.679c8.833-11.425,21.562-19.937,36.777-23.255
	c34.362-7.492,68.291,14.291,75.781,48.653c5.903,27.078-6.417,53.828-28.702,67.643l6.44,29.541
	c4.37,20.044-8.336,39.836-28.381,44.205c-20.044,4.37-39.836-8.336-44.205-28.381l-3.594-16.487
	c-3.255,1.305-6.625,2.422-10.166,3.193c-34.362,7.492-68.289-14.291-75.781-48.653C245.619,120.369,267.402,86.441,301.764,78.949z
	"/>
<g>
	<path style="fill:#1D1D1B;" d="M504.783,477.2c0,0-59.064-372.609-59.629-375.2c-8.399-38.527-46.577-63.035-85.102-54.637
		c-14.895,3.248-28.378,11.216-38.417,22.617c-7.265-0.662-14.49-0.22-21.539,1.317c-12.465,2.717-23.448,8.565-32.339,16.519
		c-3.22-29.754-25.045-55.519-55.854-62.236v0.001c-7.05-1.537-14.274-1.978-21.539-1.317
		c-10.038-11.401-23.521-19.369-38.417-22.617c-38.527-8.396-76.703,16.111-85.102,54.638
		C66.277,58.879,7.215,431.484,7.215,431.484l159.617,34.798l82.757-295.107l95.578,340.822L504.783,477.2z M447.034,446.34
		l35.747-7.793l4.211,26.5l-130.731,28.5L273.737,199.28c11.92,8.529,26.404,13.406,41.577,13.405
		c5.029-0.001,10.136-0.536,15.245-1.65c0.897-0.195,1.797-0.413,2.704-0.653l1.737,7.963c2.56,11.738,9.536,21.777,19.646,28.268
		c7.339,4.712,15.692,7.145,24.211,7.144c3.214,0,6.454-0.346,9.67-1.047c11.739-2.56,21.777-9.536,28.268-19.647
		c6.491-10.11,8.656-22.142,6.098-33.881l-5.311-24.36c8.208-6.029,14.878-13.642,19.766-22.214l42.971,270.442l-36.621,7.985
		L447.034,446.34z M259.906,134.385l4.491-16.014c0.034-0.102,0.074-0.201,0.109-0.303c7.058-15.479,21.063-27.571,38.926-31.465
		l0,0c6.619-1.443,13.458-1.641,20.325-0.589l4.56,0.699l2.822-3.65c8.012-10.363,19.465-17.605,32.249-20.393
		c30.033-6.546,59.798,12.52,66.424,42.521l1.052,6.617c2.028,20.92-7.988,41.565-26.192,52.851l-4.704,2.917l7.619,34.949
		c1.668,7.65,0.257,15.492-3.973,22.081c-4.23,6.589-10.773,11.136-18.424,12.804c-7.648,1.671-15.492,0.257-22.081-3.973
		c-6.588-4.23-11.136-10.773-12.804-18.423l-5.567-25.534l-8.593,3.445c-3.188,1.278-6.106,2.197-8.92,2.81
		c-27.916,6.086-55.579-9.958-64.67-36.333l-1.822-6.497C259.387,146.645,259.158,140.406,259.906,134.385z M81.133,66.09
		l1.053-6.623c5.748-26.012,28.886-43.802,54.518-43.802c3.928,0,7.916,0.418,11.906,1.288
		c12.784,2.786,24.237,10.029,32.249,20.393l2.822,3.65l4.56-0.699c6.868-1.053,13.705-0.853,20.325,0.589
		c30.034,6.549,49.158,36.27,42.699,66.303l-1.666,5.941c-0.758,1.769-1.459,3.564-2.074,5.395
		c-9.016,19.883-29.025,32.781-50.845,32.78c-3.928-0.001-7.916-0.418-11.906-1.289c-2.814-0.613-5.732-1.533-8.92-2.81
		l-8.594-3.445l-5.567,25.534c-1.668,7.65-6.215,14.193-12.804,18.423c-6.588,4.23-14.43,5.642-22.081,3.973
		c-7.65-1.668-14.193-6.215-18.424-12.804c-4.23-6.589-5.641-14.431-3.973-22.081l7.619-34.949l-4.704-2.917
		C89.12,107.654,79.105,87.009,81.133,66.09z M155.737,447.832L25.006,419.33l4.211-26.5l35.747,7.793l3.336-15.305l-36.621-7.985
		L74.65,106.893c4.889,8.571,11.559,16.185,19.767,22.214l-5.311,24.361c-2.558,11.739-0.394,23.771,6.098,33.881
		c6.49,10.11,16.53,17.086,28.268,19.646c3.217,0.701,6.455,1.047,9.67,1.047c8.517,0,16.871-2.432,24.211-7.144
		c10.11-6.49,17.086-16.53,19.646-28.268l1.737-7.964c0.907,0.24,1.808,0.458,2.704,0.654c20.532,4.477,40.949-0.406,56.824-11.763
		L155.737,447.832z"/>
	
		<rect x="416.811" y="432.567" transform="matrix(-0.213 -0.977 0.977 -0.213 82.0878 952.4782)" style="fill:#1D1D1B;" width="15.663" height="21.225"/>
</g>
<g>
</g>
<g>
</g>
<g>
</g>
<g>
</g>
<g>
</g>
<g>
</g>
<g>
</g>
<g>
</g>
<g>
</g>
<g>
</g>
<g>
</g>
<g>
</g>
<g>
</g>
<g>
</g>
<g>
</g>
</svg>
